<?xml version="1.0" standalone="no"?>
<!DOCTYPE svg PUBLIC "-//W3C//DTD SVG 20010904//EN"
 "http://www.w3.org/TR/2001/REC-SVG-20010904/DTD/svg10.dtd">
<svg version="1.0" xmlns="http://www.w3.org/2000/svg"
 width="836.000000pt" height="284.000000pt" viewBox="0 0 836.000000 284.000000"
 preserveAspectRatio="xMidYMid meet">
<metadata>
Created by potrace 1.15, written by Peter Selinger 2001-2017
</metadata>
<g transform="translate(0.000000,284.000000) scale(0.100000,-0.100000)"
fill="#fff" stroke="none">
<path d="M2310 2826 c-197 -41 -452 -159 -715 -331 -221 -143 -394 -286 -639
-525 -369 -360 -636 -716 -806 -1073 -210 -441 -194 -754 43 -863 58 -27 70
-29 187 -28 97 0 143 5 205 22 265 74 565 233 862 457 l86 65 79 0 78 0 1 68
0 67 75 65 c42 36 136 127 210 203 l134 137 0 -270 0 -270 85 0 85 0 2 281 3
281 175 -242 c168 -232 175 -241 191 -221 9 11 90 125 180 253 l164 232 3
-292 2 -292 90 0 90 0 0 541 c0 354 -3 540 -10 537 -5 -1 -125 -163 -266 -358
-141 -195 -260 -355 -266 -355 -5 0 -78 97 -162 215 l-152 214 88 125 c216
303 348 564 409 806 31 127 31 277 -1 359 -29 75 -86 138 -159 173 -50 25 -68
28 -171 30 -66 1 -143 -4 -180 -11z m221 -186 c68 -13 95 -39 110 -107 40
-179 -125 -584 -382 -936 l-57 -79 -44 59 -43 58 -3 -119 -3 -119 -68 -81
c-38 -45 -132 -146 -209 -226 l-141 -145 -1 323 0 322 -90 0 -90 0 0 -402 -1
-403 -77 -61 c-426 -339 -839 -538 -1085 -522 -89 5 -117 26 -137 101 -49 193
136 624 442 1031 184 243 517 586 758 780 346 277 729 483 969 521 47 7 89 13
92 14 4 1 30 -4 60 -9z"/>
<path d="M7060 1186 c-107 -24 -197 -93 -243 -186 -32 -67 -36 -186 -7 -262
25 -68 87 -134 157 -169 42 -21 62 -24 158 -24 98 0 116 3 168 27 l58 27 -37
58 c-20 32 -37 59 -39 61 -1 1 -22 -7 -46 -18 -79 -36 -175 -24 -222 28 -18
19 -15 21 213 97 l232 78 -7 36 c-11 57 -65 150 -110 187 -73 59 -178 83 -275
60z m104 -137 c39 -11 96 -60 96 -83 0 -12 -299 -120 -308 -111 -3 3 0 29 7
58 14 66 53 113 106 132 49 17 51 17 99 4z"/>
<path d="M5618 1175 c-51 -19 -121 -68 -151 -106 l-25 -32 -7 62 -7 61 -74 0
-74 0 0 -305 0 -305 85 0 85 0 0 158 c0 147 2 162 23 203 30 56 91 100 150
106 40 5 46 8 51 35 3 17 6 55 6 84 0 59 -2 61 -62 39z"/>
<path d="M3685 1169 c-111 -41 -163 -155 -115 -254 27 -56 71 -87 173 -121 89
-30 118 -58 99 -99 -13 -28 -77 -49 -119 -39 -38 9 -84 32 -109 55 -20 19 -21
19 -54 -27 -40 -57 -36 -67 45 -109 48 -25 73 -31 143 -34 182 -7 268 70 263
238 -2 52 -69 112 -157 141 -126 41 -152 66 -121 114 28 42 116 40 178 -5 l26
-18 32 50 c17 28 31 52 31 54 0 3 -24 17 -52 32 -44 22 -68 27 -143 30 -49 1
-103 -2 -120 -8z"/>
<path d="M4330 918 c0 -273 3 -286 73 -342 33 -27 48 -31 111 -34 90 -5 158
21 211 79 l35 39 0 -32 c0 -74 5 -78 86 -78 l74 0 0 305 0 305 -85 0 -85 0 0
-162 c0 -150 -2 -167 -24 -214 -36 -78 -108 -118 -171 -94 -53 20 -54 28 -55
258 l0 212 -85 0 -85 0 0 -242z"/>
<path d="M5903 1153 c142 -261 352 -622 357 -616 11 11 330 609 330 617 0 4
-41 5 -92 4 l-92 -3 -70 -162 c-39 -90 -73 -163 -76 -163 -3 0 -41 74 -84 165
l-79 165 -99 0 c-55 0 -97 -3 -95 -7z"/>
<path d="M7670 1156 c0 -2 63 -133 140 -291 l140 -288 -66 -146 c-36 -80 -68
-152 -71 -158 -4 -10 15 -13 78 -13 l84 0 193 443 c105 243 192 445 192 450 0
4 -33 7 -74 7 l-74 0 -82 -182 c-45 -101 -85 -189 -89 -196 -5 -8 -41 61 -96
182 l-88 196 -93 0 c-52 0 -94 -2 -94 -4z"/>
</g>
</svg>
